# xmcd
#
# Track frame offsets: 
#        150
#        14592
#        24150
#        43472
#        68800
#        80145
#        84115
#        93645
#        112850
#        138807
#        155007
#        160317
#        190532
#        205662
#        231010
#        245075
#
# Disc length: 3741 seconds
#
# Revision: 3
# Processed by: cddbd v1.5.1PL0 Copyright (c) Steve Scherf et al.
# Submitted via: ExactAudioCopy v0.95a5
#
DISCID=ca0e9b10
DTITLE=Andrew Lloyd Webber - Phantom of the Opera - Original Japanese 
DTITLE=Cast
DYEAR=1992
DGENRE=Soundtrack
TTITLE0=Prologue
TTITLE1=Overture
TTITLE2=The dress rehearsal of "Hannibal"
TTITLE3=Think of Me
TTITLE4=Angel of Music
TTITLE5=Little Lotte...
TTITLE6=The Mirror...(Angel of Music)
TTITLE7=The Phantom of the Opera
TTITLE8=The Music of the Night
TTITLE9=I Remember.../Stranger Than You Dreamt it...
TTITLE10=Magical Lasso...
TTITLE11=Notes...
TTITLE12=Prima Donna
TTITLE13=Poor Fool, He Makes Me Laugh
TTITLE14=Why Have You Brought Me Here.../Raoul, I've Been There
TTITLE15=All I Ask of You
EXTD=
EXTT0=
EXTT1=
EXTT2=
EXTT3=
EXTT4=
EXTT5=
EXTT6=
EXTT7=
EXTT8=
EXTT9=
EXTT10=
EXTT11=
EXTT12=
EXTT13=
EXTT14=
EXTT15=
PLAYORDER=
